<?xml version="1.0" encoding="UTF-8" standalone="no"?>
<svg
   preserveAspectRatio="xMidYMid meet"
   data-bbox="20 20 160 160"
   viewBox="20 20 168.8 42.4"
   height="53"
   width="211"
   data-type="color"
   role="img"
   aria-labelledby="svgcid-2cwz1z-19asgm"
   version="1.1"
   id="svg4"
   sodipodi:docname="complete-logo.svg"
   inkscape:version="1.1.1 (3bf5ae0d25, 2021-09-20)"
   xmlns:inkscape="http://www.inkscape.org/namespaces/inkscape"
   xmlns:sodipodi="http://sodipodi.sourceforge.net/DTD/sodipodi-0.dtd"
   xmlns="http://www.w3.org/2000/svg"
   xmlns:svg="http://www.w3.org/2000/svg">
  <defs
     id="defs8">
    <rect
       x="51.504509"
       y="58.488171"
       width="212.12874"
       height="23.569859"
       id="rect2763" />
    <rect
       x="218.23946"
       y="-2.6188734"
       width="199.03436"
       height="76.820282"
       id="rect5007" />
  </defs>
  <sodipodi:namedview
     id="namedview6"
     pagecolor="#ffffff"
     bordercolor="#999999"
     borderopacity="1"
     inkscape:pageshadow="0"
     inkscape:pageopacity="0"
     inkscape:pagecheckerboard="0"
     showgrid="false"
     inkscape:zoom="3.8781407"
     inkscape:cx="103.01328"
     inkscape:cy="72.070618"
     inkscape:window-width="1920"
     inkscape:window-height="1001"
     inkscape:window-x="-9"
     inkscape:window-y="1341"
     inkscape:window-maximized="1"
     inkscape:current-layer="svg4" />
  <path
     d="M 41.2,20 C 29.491505,20 20,29.491505 20,41.2 20,52.908495 29.491505,62.4 41.2,62.4 52.908495,62.4 62.4,52.908495 62.4,41.2 62.4,29.491505 52.908495,20 41.2,20 Z m 0,9.969565 c 1.636375,0 2.962965,1.32659 2.962965,2.962965 0,1.636375 -1.32659,2.96323 -2.962965,2.96323 -1.636375,0 -2.962965,-1.32659 -2.962965,-2.962965 0,-1.636375 1.32659,-2.96323 2.962965,-2.96323 z M 28.938185,37.30238 c 0,-1.636375 1.32659,-2.962965 2.962965,-2.962965 1.636375,0 2.962965,1.32659 2.962965,2.962965 0,1.636375 -1.32659,2.962965 -2.962965,2.962965 -1.636375,0 -2.962965,-1.32659 -2.962965,-2.962965 z M 41.2,51.933295 c -4.875735,0 -8.82821,-1.60113 -8.82821,-4.805775 0,-3.20491 3.952475,-6.800165 8.82821,-6.800165 4.87547,0 8.827945,3.59499 8.827945,6.800165 0,3.20491 -3.952475,4.805775 -8.827945,4.805775 z m 9.298585,-11.66795 c -1.636375,0 -2.962965,-1.32659 -2.962965,-2.962965 0,-1.636375 1.32659,-2.962965 2.962965,-2.962965 1.636375,0 2.962965,1.32659 2.962965,2.962965 0,1.636375 -1.326325,2.962965 -2.962965,2.962965 z"
     fill="#c5440d"
     id="path2"
     style="stroke-width:0.265" />
  <text
     xml:space="preserve"
     transform="matrix(0.8,0,0,0.8,20,20)"
     id="text2761"
     style="font-size:13.3333px;line-height:1.25;font-family:sans-serif;white-space:pre;shape-inside:url(#rect2763)" />
  <text
     xml:space="preserve"
     style="font-size:12.8px;line-height:1.25;font-family:sans-serif;letter-spacing:0.64px;stroke-width:0.8"
     x="74.406563"
     y="62.246399"
     id="text7535"><tspan
       sodipodi:role="line"
       id="tspan7533"
       style="font-style:normal;font-variant:normal;font-weight:normal;font-stretch:normal;font-size:12.8px;font-family:'Avenir LT W01';-inkscape-font-specification:'Avenir LT W01';stroke-width:0.8"
       x="74.406563"
       y="62.246399">Preferido dos Pets</tspan></text>
  <text
     xml:space="preserve"
     style="font-size:32px;line-height:1.25;font-family:Poppins;-inkscape-font-specification:Poppins;stroke-width:0.8"
     x="73.440163"
     y="42.655998"
     id="text16707"><tspan
       sodipodi:role="line"
       id="tspan16705"
       style="font-style:normal;font-variant:normal;font-weight:600;font-stretch:normal;font-size:32px;font-family:Poppins;-inkscape-font-specification:'Poppins Semi-Bold';fill:#c5440d;fill-opacity:1;stroke-width:0.8"
       x="73.440163"
       y="42.655998">MIMUS</tspan></text>
</svg>
