<?xml version="1.0" encoding="UTF-8" standalone="no"?>
<svg
   preserveAspectRatio="xMidYMid meet"
   data-bbox="45.747 19.975 108.522 160.025"
   viewBox="45.747 19.975 108.522 160.025"
   height="200"
   width="200"
   data-type="color"
   role="presentation"
   aria-hidden="true"
   aria-labelledby="svgcid--adfkvh-xd69dq"
   version="1.1"
   id="svg8"
   sodipodi:docname="map-pin-icon.svg"
   inkscape:version="1.1.1 (3bf5ae0d25, 2021-09-20)"
   xmlns:inkscape="http://www.inkscape.org/namespaces/inkscape"
   xmlns:sodipodi="http://sodipodi.sourceforge.net/DTD/sodipodi-0.dtd"
   xmlns="http://www.w3.org/2000/svg"
   xmlns:svg="http://www.w3.org/2000/svg">
  <defs
     id="defs12" />
  <sodipodi:namedview
     id="namedview10"
     pagecolor="#ffffff"
     bordercolor="#999999"
     borderopacity="1"
     inkscape:pageshadow="0"
     inkscape:pageopacity="0"
     inkscape:pagecheckerboard="0"
     showgrid="false"
     inkscape:zoom="2.6591384"
     inkscape:cx="67.127007"
     inkscape:cy="76.528549"
     inkscape:window-width="1920"
     inkscape:window-height="1001"
     inkscape:window-x="-9"
     inkscape:window-y="1341"
     inkscape:window-maximized="1"
     inkscape:current-layer="svg8" />
  <g
     id="g6"
     transform="matrix(0.69223346,0,0,0.69223346,30.778737,30.772807)">
    <path
       d="m 104.5,180 h -8.9 c 0,-15.7 -19.4,-44.4 -32.2,-63.5 -5.2,-7.7 -9.2,-13.7 -11.3,-17.7 -11.8,-21.7 -6.8,-49.2 12,-65.4 20.5,-17.9 51.5,-17.9 72,0 5.2,4.5 9.5,10 12.6,16.2 7.7,15.5 7.4,33.9 -0.8,49.2 -2,3.9 -6.1,10 -11.3,17.7 -12.7,19.1 -32.1,47.8 -32.1,63.5 z"
       fill="#c5440d"
       data-color="1"
       id="path2" />
    <path
       fill="#ffffff"
       d="m 117.3,74.7 c 0,9.555 -7.745,17.3 -17.3,17.3 -9.555,0 -17.3,-7.745 -17.3,-17.3 0,-9.555 7.745,-17.3 17.3,-17.3 9.555,0 17.3,7.745 17.3,17.3 z"
       data-color="2"
       id="path4" />
  </g>
</svg>
