<?xml version="1.0" encoding="UTF-8" standalone="no"?>
<svg
   preserveAspectRatio="xMidYMid meet"
   data-bbox="34.161 20 131.677 160"
   viewBox="34.161 20 131.677 160"
   height="200"
   width="200"
   data-type="color"
   role="presentation"
   aria-hidden="true"
   aria-labelledby="svgcid--tatm4hvsrlpe"
   version="1.1"
   id="svg10"
   sodipodi:docname="security-logo.svg"
   inkscape:version="1.1.1 (3bf5ae0d25, 2021-09-20)"
   xmlns:inkscape="http://www.inkscape.org/namespaces/inkscape"
   xmlns:sodipodi="http://sodipodi.sourceforge.net/DTD/sodipodi-0.dtd"
   xmlns="http://www.w3.org/2000/svg"
   xmlns:svg="http://www.w3.org/2000/svg">
  <defs
     id="defs14" />
  <sodipodi:namedview
     id="namedview12"
     pagecolor="#ffffff"
     bordercolor="#999999"
     borderopacity="1"
     inkscape:pageshadow="0"
     inkscape:pageopacity="0"
     inkscape:pagecheckerboard="0"
     showgrid="false"
     inkscape:zoom="3.2772131"
     inkscape:cx="84.065329"
     inkscape:cy="111.52769"
     inkscape:window-width="1920"
     inkscape:window-height="1001"
     inkscape:window-x="-9"
     inkscape:window-y="1341"
     inkscape:window-maximized="1"
     inkscape:current-layer="svg10" />
  <g
     id="g8"
     transform="matrix(0.6588914,0,0,0.6588914,34.11036,34.11086)">
    <path
       d="m 100,20 c 0,0 -35.3,30.2 -65.8,19.9 0,0 -0.5,57.3 2.1,76.2 2.9,21.1 12.9,46.4 63.7,63.9 50.8,-17.5 60.8,-42.8 63.7,-63.9 2.6,-18.9 2.1,-76.2 2.1,-76.2 C 135.3,50.2 100,20 100,20 Z"
       fill="#c5440d"
       id="path2" />
    <path
       fill="#ffffff"
       d="m 126.3,92.2 v 44.2 H 73.8 V 92.2 Z"
       id="path4" />
    <path
       d="M 87.6,90.8 V 76.9 c 0,-5.8 5.6,-10.5 12.4,-10.5 6.8,0 12.4,4.7 12.4,10.5 v 13.9 h 5.5 V 76.9 c 0,-8.5 -8.1,-15.4 -18,-15.4 -9.9,0 -18,6.9 -18,15.4 v 13.9 z"
       fill="#ffffff"
       id="path6" />
  </g>
</svg>
